<svg xmlns="http://www.w3.org/2000/svg" viewBox="0 0 100 100">
  <!-- ears (back layer) -->
  <polygon points="24,4 12,32 38,30" fill="#e8e8ea"/>
  <polygon points="24,4 12,32 38,30" fill="none"/>
  <polygon points="26,10 18,28 34,27" fill="#f5a9c9"/>

  <polygon points="76,4 88,32 62,30" fill="#e8e8ea"/>
  <polygon points="76,4 88,32 62,30" fill="none"/>
  <polygon points="74,10 82,28 66,27" fill="#f5a9c9"/>

  <!-- head -->
  <polygon points="50,20 20,32 16,54 32,80 50,88 68,80 84,54 80,32" fill="#e8e8ea"/>

  <!-- tan top band -->
  <polygon points="50,20 20,32 24,46 50,42" fill="#e3c079"/>
  <polygon points="50,20 80,32 76,46 50,42" fill="#e3c079"/>

  <!-- cheek patches -->
  <polygon points="16,54 24,46 50,42 44,62 32,80" fill="#f2f2f2"/>
  <polygon points="84,54 76,46 50,42 56,62 68,80" fill="#d9d9db"/>

  <!-- chin -->
  <polygon points="44,62 50,42 56,62 50,88" fill="#f7f7f7"/>

  <!-- eyes -->
  <circle cx="38" cy="55" r="5" fill="#1a1a1a"/>
  <circle cx="39.6" cy="53.2" r="1.3" fill="#ffffff"/>
  <circle cx="62" cy="55" r="5" fill="#1a1a1a"/>
  <circle cx="63.6" cy="53.2" r="1.3" fill="#ffffff"/>

  <!-- nose -->
  <polygon points="50,63 44,68 56,68" fill="#f5799a"/>

  <!-- shoulders / neck -->
  <polygon points="20,88 32,80 50,88 68,80 80,88 80,100 20,100" fill="#c9c9cc"/>
  <polygon points="72,90 80,86 80,100 66,100" fill="#3a3a3c"/>

  <!-- collar -->
  <path d="M18,87 Q50,96 82,87 L82,93 Q50,102 18,93 Z" fill="#f2542d"/>
  <circle cx="50" cy="93" r="4.5" fill="#f2ad42"/>
</svg>
