<svg width="226" height="186" viewBox="0 0 226 186" fill="none" xmlns="http://www.w3.org/2000/svg">
<circle cx="119" cy="111" r="73" stroke="#437171" stroke-width="4"/>
<circle cx="113" cy="42" r="40.5" fill="#6B9E9E" stroke="#437171" stroke-width="3"/>
<path d="M194 111.5C211.404 111.5 225.5 125.387 225.5 142.5C225.5 159.613 211.404 173.5 194 173.5C176.596 173.5 162.5 159.613 162.5 142.5C162.5 125.387 176.596 111.5 194 111.5Z" fill="#EAAD63" stroke="#437171"/>
<path d="M43.5 103.5C67.2707 103.5 86.5 121.878 86.5 144.5C86.5 167.122 67.2707 185.5 43.5 185.5C19.7293 185.5 0.5 167.122 0.5 144.5C0.5 121.878 19.7293 103.5 43.5 103.5Z" fill="#EAAD63" stroke="#437171"/>
<mask id="path-5-outside-1_96_1062" maskUnits="userSpaceOnUse" x="100" y="27" width="27" height="29" fill="black">
<rect fill="white" x="100" y="27" width="27" height="29"/>
<path d="M104.068 45.14H123.22V46.764H104.068V45.14ZM105.216 41.472H125.516V43.124H105.216V41.472ZM105.188 34.416H119.86V35.872H105.188V34.416ZM122.436 45.14H124.508C124.508 45.14 124.499 45.252 124.48 45.476C124.48 45.6813 124.461 45.8587 124.424 46.008C124.293 47.6133 124.153 48.92 124.004 49.928C123.873 50.936 123.715 51.72 123.528 52.28C123.36 52.8587 123.145 53.2693 122.884 53.512C122.66 53.7547 122.408 53.9227 122.128 54.016C121.867 54.128 121.54 54.1933 121.148 54.212C120.812 54.2493 120.317 54.268 119.664 54.268C119.011 54.268 118.32 54.24 117.592 54.184C117.573 53.904 117.517 53.5867 117.424 53.232C117.331 52.896 117.209 52.5973 117.06 52.336C117.751 52.4107 118.385 52.4573 118.964 52.476C119.561 52.4947 119.972 52.504 120.196 52.504C120.457 52.504 120.663 52.4853 120.812 52.448C120.961 52.4107 121.092 52.3453 121.204 52.252C121.372 52.0653 121.531 51.7293 121.68 51.244C121.829 50.7587 121.96 50.0493 122.072 49.116C122.203 48.164 122.324 46.932 122.436 45.42V45.14ZM111.432 28.368L113.868 28.704C113.588 29.2827 113.28 29.8613 112.944 30.44C112.608 31 112.309 31.4853 112.048 31.896L110.256 31.476C110.461 31.0093 110.676 30.4867 110.9 29.908C111.143 29.3293 111.32 28.816 111.432 28.368ZM105.244 30.72H121.316V39.568H105.244V38H119.244V32.288H105.244V30.72ZM104.068 30.72H106.14V45.756H104.068V30.72ZM115.1 47.604H117.06V52.364H102.752V50.684H115.1V47.604ZM108.408 46.512H110.34V51.384H108.408V46.512ZM101.688 47.688H103.62V53.764H101.688V47.688Z"/>
</mask>
<path d="M104.068 45.14H123.22V46.764H104.068V45.14ZM105.216 41.472H125.516V43.124H105.216V41.472ZM105.188 34.416H119.86V35.872H105.188V34.416ZM122.436 45.14H124.508C124.508 45.14 124.499 45.252 124.48 45.476C124.48 45.6813 124.461 45.8587 124.424 46.008C124.293 47.6133 124.153 48.92 124.004 49.928C123.873 50.936 123.715 51.72 123.528 52.28C123.36 52.8587 123.145 53.2693 122.884 53.512C122.66 53.7547 122.408 53.9227 122.128 54.016C121.867 54.128 121.54 54.1933 121.148 54.212C120.812 54.2493 120.317 54.268 119.664 54.268C119.011 54.268 118.32 54.24 117.592 54.184C117.573 53.904 117.517 53.5867 117.424 53.232C117.331 52.896 117.209 52.5973 117.06 52.336C117.751 52.4107 118.385 52.4573 118.964 52.476C119.561 52.4947 119.972 52.504 120.196 52.504C120.457 52.504 120.663 52.4853 120.812 52.448C120.961 52.4107 121.092 52.3453 121.204 52.252C121.372 52.0653 121.531 51.7293 121.68 51.244C121.829 50.7587 121.96 50.0493 122.072 49.116C122.203 48.164 122.324 46.932 122.436 45.42V45.14ZM111.432 28.368L113.868 28.704C113.588 29.2827 113.28 29.8613 112.944 30.44C112.608 31 112.309 31.4853 112.048 31.896L110.256 31.476C110.461 31.0093 110.676 30.4867 110.9 29.908C111.143 29.3293 111.32 28.816 111.432 28.368ZM105.244 30.72H121.316V39.568H105.244V38H119.244V32.288H105.244V30.72ZM104.068 30.72H106.14V45.756H104.068V30.72ZM115.1 47.604H117.06V52.364H102.752V50.684H115.1V47.604ZM108.408 46.512H110.34V51.384H108.408V46.512ZM101.688 47.688H103.62V53.764H101.688V47.688Z" fill="white"/>
<path d="M104.068 45.14V44.14H103.068V45.14H104.068ZM123.22 45.14H124.22V44.14H123.22V45.14ZM123.22 46.764V47.764H124.22V46.764H123.22ZM104.068 46.764H103.068V47.764H104.068V46.764ZM105.216 41.472V40.472H104.216V41.472H105.216ZM125.516 41.472H126.516V40.472H125.516V41.472ZM125.516 43.124V44.124H126.516V43.124H125.516ZM105.216 43.124H104.216V44.124H105.216V43.124ZM105.188 34.416V33.416H104.188V34.416H105.188ZM119.86 34.416H120.86V33.416H119.86V34.416ZM119.86 35.872V36.872H120.86V35.872H119.86ZM105.188 35.872H104.188V36.872H105.188V35.872ZM122.436 45.14V44.14H121.436V45.14H122.436ZM124.508 45.14L125.505 45.223L125.595 44.14H124.508V45.14ZM124.48 45.476L123.483 45.393L123.48 45.4344V45.476H124.48ZM124.424 46.008L123.454 45.7655L123.434 45.8451L123.427 45.9269L124.424 46.008ZM124.004 49.928L123.015 49.7815L123.013 49.7904L123.012 49.7994L124.004 49.928ZM123.528 52.28L122.579 51.9638L122.573 51.9824L122.568 52.0012L123.528 52.28ZM122.884 53.512L122.204 52.7792L122.175 52.8054L122.149 52.8337L122.884 53.512ZM122.128 54.016L121.812 53.0673L121.772 53.0805L121.734 53.0969L122.128 54.016ZM121.148 54.212L121.1 53.2131L121.069 53.2146L121.038 53.2181L121.148 54.212ZM117.592 54.184L116.594 54.2505L116.652 55.1146L117.515 55.1811L117.592 54.184ZM117.424 53.232L118.391 52.9775L118.388 52.9644L117.424 53.232ZM117.06 52.336L117.167 51.3418L115.22 51.1312L116.192 52.8321L117.06 52.336ZM118.964 52.476L118.932 53.4755L118.933 53.4755L118.964 52.476ZM121.204 52.252L121.844 53.0202L121.899 52.9743L121.947 52.921L121.204 52.252ZM121.68 51.244L122.636 51.5381V51.5381L121.68 51.244ZM122.072 49.116L121.081 48.98L121.08 48.9884L121.079 48.9969L122.072 49.116ZM122.436 45.42L123.433 45.4939L123.436 45.457V45.42H122.436ZM111.432 28.368L111.569 27.3774L110.68 27.2547L110.462 28.1255L111.432 28.368ZM113.868 28.704L114.768 29.1396L115.367 27.9013L114.005 27.7134L113.868 28.704ZM112.944 30.44L113.801 30.9545L113.805 30.9483L113.809 30.9421L112.944 30.44ZM112.048 31.896L111.82 32.8696L112.511 33.0315L112.892 32.4329L112.048 31.896ZM110.256 31.476L109.341 31.0733L108.856 32.175L110.028 32.4496L110.256 31.476ZM110.9 29.908L109.978 29.5213L109.972 29.5341L109.967 29.547L110.9 29.908ZM105.244 30.72V29.72H104.244V30.72H105.244ZM121.316 30.72H122.316V29.72H121.316V30.72ZM121.316 39.568V40.568H122.316V39.568H121.316ZM105.244 39.568H104.244V40.568H105.244V39.568ZM105.244 38V37H104.244V38H105.244ZM119.244 38V39H120.244V38H119.244ZM119.244 32.288H120.244V31.288H119.244V32.288ZM105.244 32.288H104.244V33.288H105.244V32.288ZM104.068 30.72V29.72H103.068V30.72H104.068ZM106.14 30.72H107.14V29.72H106.14V30.72ZM106.14 45.756V46.756H107.14V45.756H106.14ZM104.068 45.756H103.068V46.756H104.068V45.756ZM115.1 47.604V46.604H114.1V47.604H115.1ZM117.06 47.604H118.06V46.604H117.06V47.604ZM117.06 52.364V53.364H118.06V52.364H117.06ZM102.752 52.364H101.752V53.364H102.752V52.364ZM102.752 50.684V49.684H101.752V50.684H102.752ZM115.1 50.684V51.684H116.1V50.684H115.1ZM108.408 46.512V45.512H107.408V46.512H108.408ZM110.34 46.512H111.34V45.512H110.34V46.512ZM110.34 51.384V52.384H111.34V51.384H110.34ZM108.408 51.384H107.408V52.384H108.408V51.384ZM101.688 47.688V46.688H100.688V47.688H101.688ZM103.62 47.688H104.62V46.688H103.62V47.688ZM103.62 53.764V54.764H104.62V53.764H103.62ZM101.688 53.764H100.688V54.764H101.688V53.764ZM104.068 45.14V46.14H123.22V45.14V44.14H104.068V45.14ZM123.22 45.14H122.22V46.764H123.22H124.22V45.14H123.22ZM123.22 46.764V45.764H104.068V46.764V47.764H123.22V46.764ZM104.068 46.764H105.068V45.14H104.068H103.068V46.764H104.068ZM105.216 41.472V42.472H125.516V41.472V40.472H105.216V41.472ZM125.516 41.472H124.516V43.124H125.516H126.516V41.472H125.516ZM125.516 43.124V42.124H105.216V43.124V44.124H125.516V43.124ZM105.216 43.124H106.216V41.472H105.216H104.216V43.124H105.216ZM105.188 34.416V35.416H119.86V34.416V33.416H105.188V34.416ZM119.86 34.416H118.86V35.872H119.86H120.86V34.416H119.86ZM119.86 35.872V34.872H105.188V35.872V36.872H119.86V35.872ZM105.188 35.872H106.188V34.416H105.188H104.188V35.872H105.188ZM122.436 45.14V46.14H124.508V45.14V44.14H122.436V45.14ZM124.508 45.14C123.511 45.0569 123.511 45.057 123.511 45.057C123.511 45.057 123.511 45.057 123.511 45.057C123.511 45.057 123.511 45.057 123.511 45.057C123.511 45.057 123.511 45.057 123.511 45.057C123.511 45.057 123.511 45.057 123.511 45.057C123.511 45.057 123.511 45.057 123.511 45.057C123.511 45.057 123.511 45.057 123.511 45.057C123.511 45.057 123.511 45.057 123.511 45.057C123.511 45.0571 123.511 45.0571 123.511 45.0571C123.511 45.0572 123.511 45.0571 123.511 45.0572C123.511 45.0572 123.511 45.0572 123.511 45.0572C123.511 45.0573 123.511 45.0573 123.511 45.0573C123.511 45.0574 123.511 45.0575 123.511 45.0577C123.511 45.0577 123.511 45.0582 123.511 45.0583C123.511 45.0586 123.511 45.0594 123.511 45.0599C123.511 45.0611 123.511 45.0608 123.511 45.0622C123.511 45.066 123.511 45.0641 123.51 45.0688C123.51 45.0762 123.51 45.0697 123.51 45.0779C123.509 45.0885 123.509 45.0901 123.508 45.1042C123.507 45.1093 123.505 45.1324 123.504 45.141C123.499 45.2072 123.502 45.1657 123.496 45.246C123.492 45.296 123.489 45.3289 123.483 45.393L124.48 45.476L125.477 45.559C125.483 45.4851 125.496 45.325 125.498 45.307C125.498 45.2994 125.499 45.2942 125.499 45.2874C125.499 45.2864 125.499 45.286 125.499 45.2851C125.499 45.2841 125.499 45.2838 125.5 45.2829C125.5 45.2816 125.5 45.2818 125.5 45.2807C125.5 45.2796 125.5 45.2796 125.5 45.2785C125.5 45.2764 125.5 45.2764 125.5 45.2743C125.5 45.2741 125.5 45.274 125.5 45.2738C125.5 45.2736 125.5 45.2735 125.5 45.2733C125.5 45.2731 125.5 45.273 125.5 45.2728C125.5 45.2726 125.5 45.2725 125.5 45.2723C125.5 45.2717 125.5 45.2718 125.501 45.2713C125.501 45.2711 125.501 45.271 125.501 45.2708C125.501 45.2706 125.501 45.2705 125.501 45.2703C125.501 45.2691 125.501 45.2676 125.501 45.2664C125.501 45.264 125.501 45.2651 125.501 45.2628C125.501 45.2619 125.502 45.2565 125.502 45.2559C125.502 45.2508 125.502 45.2483 125.503 45.244C125.503 45.243 125.503 45.24 125.503 45.2391C125.503 45.2374 125.503 45.2364 125.504 45.2349C125.504 45.2348 125.504 45.2347 125.504 45.2346C125.504 45.2345 125.504 45.2345 125.504 45.2344C125.504 45.2341 125.504 45.2341 125.504 45.2339C125.504 45.2339 125.504 45.233 125.504 45.233C125.504 45.2322 125.504 45.232 125.504 45.2313C125.504 45.2304 125.504 45.229 125.504 45.2283C125.504 45.2281 125.504 45.2272 125.504 45.2271C125.504 45.227 125.504 45.2266 125.504 45.2265C125.504 45.2264 125.504 45.2264 125.504 45.2263C125.504 45.2262 125.504 45.2262 125.504 45.2261C125.504 45.2261 125.504 45.226 125.504 45.226C125.504 45.2258 125.504 45.2257 125.504 45.2255C125.504 45.2253 125.504 45.2253 125.504 45.2251C125.504 45.2248 125.504 45.2246 125.504 45.2244C125.504 45.2241 125.505 45.2234 125.505 45.2234C125.505 45.2233 125.505 45.2232 125.505 45.2231C125.505 45.2231 125.505 45.2231 125.505 45.2231C125.505 45.2231 125.505 45.2231 125.505 45.2231C125.505 45.2231 125.505 45.2231 125.505 45.2231C125.505 45.223 125.505 45.223 124.508 45.14ZM124.48 45.476H123.48C123.48 45.6249 123.466 45.7168 123.454 45.7655L124.424 46.008L125.394 46.2505C125.457 46.0006 125.48 45.7377 125.48 45.476H124.48ZM124.424 46.008L123.427 45.9269C123.298 47.5213 123.16 48.8039 123.015 49.7815L124.004 49.928L124.993 50.0745C125.147 49.0361 125.289 47.7054 125.421 46.0891L124.424 46.008ZM124.004 49.928L123.012 49.7994C122.885 50.7822 122.736 51.4931 122.579 51.9638L123.528 52.28L124.477 52.5962C124.693 51.9469 124.862 51.0898 124.996 50.0566L124.004 49.928ZM123.528 52.28L122.568 52.0012C122.419 52.512 122.27 52.7178 122.204 52.7792L122.884 53.512L123.564 54.2448C124.021 53.8208 124.301 53.2053 124.488 52.5588L123.528 52.28ZM122.884 53.512L122.149 52.8337C122.026 52.9674 121.913 53.0335 121.812 53.0673L122.128 54.016L122.444 54.9647C122.903 54.8119 123.294 54.5419 123.619 54.1903L122.884 53.512ZM122.128 54.016L121.734 53.0969C121.616 53.1477 121.415 53.1981 121.1 53.2131L121.148 54.212L121.196 55.2109C121.665 55.1885 122.118 55.1083 122.522 54.9351L122.128 54.016ZM121.148 54.212L121.038 53.2181C120.758 53.2492 120.308 53.268 119.664 53.268V54.268V55.268C120.327 55.268 120.866 55.2495 121.258 55.2059L121.148 54.212ZM119.664 54.268V53.268C119.039 53.268 118.374 53.2412 117.669 53.1869L117.592 54.184L117.515 55.1811C118.266 55.2388 118.982 55.268 119.664 55.268V54.268ZM117.592 54.184L118.59 54.1175C118.566 53.7581 118.496 53.3761 118.391 52.9775L117.424 53.232L116.457 53.4865C116.539 53.7972 116.581 54.0499 116.594 54.2505L117.592 54.184ZM117.424 53.232L118.388 52.9644C118.275 52.5608 118.125 52.1834 117.928 51.8399L117.06 52.336L116.192 52.8321C116.294 53.0112 116.386 53.2312 116.46 53.4996L117.424 53.232ZM117.06 52.336L116.953 53.3302C117.663 53.4071 118.324 53.4559 118.932 53.4755L118.964 52.476L118.996 51.4765C118.447 51.4588 117.838 51.4143 117.167 51.3418L117.06 52.336ZM118.964 52.476L118.933 53.4755C119.529 53.4941 119.954 53.504 120.196 53.504V52.504V51.504C119.99 51.504 119.594 51.4952 118.995 51.4765L118.964 52.476ZM120.196 52.504V53.504C120.491 53.504 120.79 53.4843 121.055 53.4181L120.812 52.448L120.569 51.4779C120.536 51.4863 120.424 51.504 120.196 51.504V52.504ZM120.812 52.448L121.055 53.4181C121.342 53.3464 121.61 53.2153 121.844 53.0202L121.204 52.252L120.564 51.4838C120.567 51.481 120.571 51.4783 120.575 51.4766C120.578 51.4749 120.577 51.4759 120.569 51.4779L120.812 52.448ZM121.204 52.252L121.947 52.921C122.269 52.5635 122.479 52.0488 122.636 51.5381L121.68 51.244L120.724 50.9499C120.659 51.1623 120.598 51.3204 120.545 51.433C120.489 51.5509 120.456 51.5878 120.461 51.583L121.204 52.252ZM121.68 51.244L122.636 51.5381C122.812 50.9665 122.951 50.1869 123.065 49.2351L122.072 49.116L121.079 48.9969C120.969 49.9118 120.847 50.5508 120.724 50.9499L121.68 51.244ZM122.072 49.116L123.063 49.252C123.197 48.2711 123.32 47.0163 123.433 45.4939L122.436 45.42L121.439 45.3461C121.328 46.8477 121.208 48.0569 121.081 48.98L122.072 49.116ZM122.436 45.42H123.436V45.14H122.436H121.436V45.42H122.436ZM111.432 28.368L111.295 29.3586L113.731 29.6946L113.868 28.704L114.005 27.7134L111.569 27.3774L111.432 28.368ZM113.868 28.704L112.968 28.2684C112.699 28.8236 112.403 29.3801 112.079 29.9379L112.944 30.44L113.809 30.9421C114.157 30.3426 114.477 29.7418 114.768 29.1396L113.868 28.704ZM112.944 30.44L112.087 29.9255C111.754 30.4803 111.46 30.9579 111.204 31.3591L112.048 31.896L112.892 32.4329C113.159 32.0128 113.462 31.5197 113.801 30.9545L112.944 30.44ZM112.048 31.896L112.276 30.9224L110.484 30.5024L110.256 31.476L110.028 32.4496L111.82 32.8696L112.048 31.896ZM110.256 31.476L111.171 31.8787C111.384 31.3957 111.604 30.8588 111.833 30.269L110.9 29.908L109.967 29.547C109.748 30.1145 109.539 30.6229 109.341 31.0733L110.256 31.476ZM110.9 29.908L111.822 30.2947C112.078 29.6847 112.274 29.1216 112.402 28.6105L111.432 28.368L110.462 28.1255C110.366 28.5104 110.207 28.974 109.978 29.5213L110.9 29.908ZM105.244 30.72V31.72H121.316V30.72V29.72H105.244V30.72ZM121.316 30.72H120.316V39.568H121.316H122.316V30.72H121.316ZM121.316 39.568V38.568H105.244V39.568V40.568H121.316V39.568ZM105.244 39.568H106.244V38H105.244H104.244V39.568H105.244ZM105.244 38V39H119.244V38V37H105.244V38ZM119.244 38H120.244V32.288H119.244H118.244V38H119.244ZM119.244 32.288V31.288H105.244V32.288V33.288H119.244V32.288ZM105.244 32.288H106.244V30.72H105.244H104.244V32.288H105.244ZM104.068 30.72V31.72H106.14V30.72V29.72H104.068V30.72ZM106.14 30.72H105.14V45.756H106.14H107.14V30.72H106.14ZM106.14 45.756V44.756H104.068V45.756V46.756H106.14V45.756ZM104.068 45.756H105.068V30.72H104.068H103.068V45.756H104.068ZM115.1 47.604V48.604H117.06V47.604V46.604H115.1V47.604ZM117.06 47.604H116.06V52.364H117.06H118.06V47.604H117.06ZM117.06 52.364V51.364H102.752V52.364V53.364H117.06V52.364ZM102.752 52.364H103.752V50.684H102.752H101.752V52.364H102.752ZM102.752 50.684V51.684H115.1V50.684V49.684H102.752V50.684ZM115.1 50.684H116.1V47.604H115.1H114.1V50.684H115.1ZM108.408 46.512V47.512H110.34V46.512V45.512H108.408V46.512ZM110.34 46.512H109.34V51.384H110.34H111.34V46.512H110.34ZM110.34 51.384V50.384H108.408V51.384V52.384H110.34V51.384ZM108.408 51.384H109.408V46.512H108.408H107.408V51.384H108.408ZM101.688 47.688V48.688H103.62V47.688V46.688H101.688V47.688ZM103.62 47.688H102.62V53.764H103.62H104.62V47.688H103.62ZM103.62 53.764V52.764H101.688V53.764V54.764H103.62V53.764ZM101.688 53.764H102.688V47.688H101.688H100.688V53.764H101.688Z" fill="#437171" mask="url(#path-5-outside-1_96_1062)"/>
<path d="M20.42 137.1H32.84V138.24H20.42V137.1ZM22.62 141.02H30.58V141.8H22.62V141.02ZM22.62 142.66H30.58V143.46H22.62V142.66ZM21.84 139.28H31.32V144.84H29.9V140.16H23.2V144.84H21.84V139.28ZM19.86 144.34H33.2V147.04H31.82V145.3H21.16V147.04H19.86V144.34ZM22.44 145.9L23.44 146.46C23.1733 146.833 22.8533 147.233 22.48 147.66C22.12 148.073 21.7067 148.427 21.24 148.72L20.32 147.94C20.7467 147.7 21.1467 147.393 21.52 147.02C21.8933 146.633 22.2 146.26 22.44 145.9ZM23.62 145.84H24.88V147.1C24.88 147.287 24.9267 147.407 25.02 147.46C25.1133 147.513 25.3333 147.54 25.68 147.54C25.76 147.54 25.9067 147.54 26.12 147.54C26.3467 147.54 26.5933 147.54 26.86 147.54C27.1267 147.54 27.38 147.54 27.62 147.54C27.86 147.54 28.0333 147.54 28.14 147.54C28.38 147.54 28.54 147.493 28.62 147.4C28.7 147.293 28.7533 147.047 28.78 146.66C28.9 146.727 29.06 146.793 29.26 146.86C29.4733 146.913 29.6533 146.96 29.8 147C29.7467 147.573 29.6133 147.96 29.4 148.16C29.2 148.36 28.84 148.46 28.32 148.46C28.24 148.46 28.0667 148.46 27.8 148.46C27.5467 148.46 27.26 148.46 26.94 148.46C26.62 148.46 26.3267 148.46 26.06 148.46C25.8067 148.46 25.6333 148.46 25.54 148.46C25.0333 148.46 24.64 148.427 24.36 148.36C24.0933 148.28 23.9 148.147 23.78 147.96C23.6733 147.76 23.62 147.473 23.62 147.1V145.84ZM25.08 145.42L25.94 144.82C26.3267 145.02 26.72 145.267 27.12 145.56C27.52 145.84 27.8267 146.107 28.04 146.36L27.14 147.02C26.94 146.767 26.64 146.487 26.24 146.18C25.84 145.873 25.4533 145.62 25.08 145.42ZM29.46 146.38L30.42 145.82C30.86 146.153 31.3 146.54 31.74 146.98C32.18 147.407 32.5133 147.793 32.74 148.14L31.74 148.74C31.5267 148.393 31.2 148 30.76 147.56C30.3333 147.107 29.9 146.713 29.46 146.38ZM24.66 148.04L26.08 148.34C25.4267 149.033 24.6333 149.693 23.7 150.32C22.78 150.947 21.6933 151.513 20.44 152.02C20.3467 151.86 20.2133 151.687 20.04 151.5C19.8667 151.313 19.7067 151.173 19.56 151.08C20.7333 150.667 21.7533 150.193 22.62 149.66C23.5 149.113 24.18 148.573 24.66 148.04ZM29.84 149.32H30.14L30.4 149.26L31.36 149.78C30.5067 151.02 29.1333 152.047 27.24 152.86C25.3467 153.673 23 154.267 20.2 154.64C20.1333 154.48 20.0267 154.287 19.88 154.06C19.7333 153.847 19.5933 153.667 19.46 153.52C22.1267 153.213 24.3533 152.713 26.14 152.02C27.94 151.327 29.1733 150.507 29.84 149.56V149.32ZM23.54 149.86C24.14 150.54 24.94 151.127 25.94 151.62C26.9533 152.113 28.1 152.507 29.38 152.8C30.66 153.093 32.0133 153.3 33.44 153.42C33.2933 153.58 33.1333 153.78 32.96 154.02C32.8 154.26 32.6733 154.48 32.58 154.68C31.1267 154.507 29.74 154.233 28.42 153.86C27.1133 153.5 25.94 153.027 24.9 152.44C23.86 151.853 22.9933 151.147 22.3 150.32L23.54 149.86ZM23.9 149.32H30.26V150.28H22.92L23.9 149.32ZM25.68 137.62L27.34 137.8C27.1933 138.187 27.0467 138.56 26.9 138.92C26.7667 139.28 26.64 139.6 26.52 139.88L25.22 139.66C25.3133 139.34 25.4 138.993 25.48 138.62C25.5733 138.247 25.64 137.913 25.68 137.62ZM18.66 136.3L20.04 136.68C19.6667 137.84 19.22 138.987 18.7 140.12C18.1933 141.253 17.64 142.327 17.04 143.34C16.44 144.34 15.8067 145.227 15.14 146C15.1 145.88 15.0333 145.727 14.94 145.54C14.8467 145.34 14.7467 145.147 14.64 144.96C14.5333 144.76 14.44 144.6 14.36 144.48C14.9467 143.8 15.5067 143.027 16.04 142.16C16.5733 141.28 17.06 140.34 17.5 139.34C17.9533 138.34 18.34 137.327 18.66 136.3ZM17.04 141.2L18.44 139.82L18.48 139.86V154.6H17.04V141.2ZM40.8 137.42C40.7467 137.753 40.7067 138.093 40.68 138.44C40.6533 138.773 40.6333 139.107 40.62 139.44C40.5933 140 40.5667 140.693 40.54 141.52C40.5133 142.347 40.4867 143.227 40.46 144.16C40.4333 145.08 40.4133 146 40.4 146.92C40.3867 147.84 40.38 148.667 40.38 149.4C40.38 150.133 40.52 150.72 40.8 151.16C41.08 151.6 41.4667 151.913 41.96 152.1C42.4533 152.287 43.02 152.38 43.66 152.38C44.5667 152.38 45.3867 152.267 46.12 152.04C46.8533 151.8 47.5067 151.487 48.08 151.1C48.6533 150.7 49.16 150.253 49.6 149.76C50.0533 149.267 50.46 148.76 50.82 148.24L51.96 149.6C51.6133 150.08 51.1867 150.58 50.68 151.1C50.1867 151.607 49.6 152.08 48.92 152.52C48.24 152.96 47.4533 153.32 46.56 153.6C45.68 153.88 44.6933 154.02 43.6 154.02C42.6533 154.02 41.8133 153.873 41.08 153.58C40.3467 153.287 39.7733 152.813 39.36 152.16C38.9467 151.507 38.74 150.64 38.74 149.56C38.74 148.96 38.7467 148.3 38.76 147.58C38.7733 146.847 38.7933 146.093 38.82 145.32C38.8467 144.547 38.8667 143.793 38.88 143.06C38.8933 142.313 38.9067 141.627 38.92 141C38.9333 140.373 38.94 139.853 38.94 139.44C38.94 139.067 38.9267 138.707 38.9 138.36C38.8733 138.013 38.8333 137.693 38.78 137.4L40.8 137.42ZM64.48 138.82C64.4133 138.607 64.3333 138.36 64.24 138.08C64.16 137.8 64.0733 137.527 63.98 137.26L65.68 137.04C65.7467 137.427 65.84 137.867 65.96 138.36C66.08 138.84 66.22 139.333 66.38 139.84C66.54 140.333 66.7 140.793 66.86 141.22C67.1667 142.087 67.5533 142.953 68.02 143.82C68.4867 144.673 68.9267 145.393 69.34 145.98C69.4867 146.167 69.6333 146.347 69.78 146.52C69.9267 146.693 70.0733 146.867 70.22 147.04L69.4 148.16C69.16 148.107 68.84 148.053 68.44 148C68.0533 147.947 67.6267 147.9 67.16 147.86C66.7067 147.807 66.2533 147.76 65.8 147.72C65.3467 147.68 64.94 147.647 64.58 147.62L64.7 146.28C65.0733 146.307 65.4667 146.34 65.88 146.38C66.3067 146.42 66.7067 146.46 67.08 146.5C67.4667 146.527 67.78 146.553 68.02 146.58C67.74 146.153 67.44 145.667 67.12 145.12C66.8 144.56 66.4867 143.973 66.18 143.36C65.8867 142.733 65.6267 142.12 65.4 141.52C65.1867 140.933 65.0067 140.413 64.86 139.96C64.7133 139.507 64.5867 139.127 64.48 138.82ZM57.16 140.38C58.28 140.513 59.36 140.607 60.4 140.66C61.4533 140.713 62.4467 140.727 63.38 140.7C64.3267 140.673 65.18 140.62 65.94 140.54C66.4733 140.473 67.0333 140.393 67.62 140.3C68.22 140.207 68.8133 140.087 69.4 139.94C69.9867 139.793 70.54 139.64 71.06 139.48L71.24 141.04C70.7733 141.187 70.26 141.313 69.7 141.42C69.14 141.527 68.58 141.627 68.02 141.72C67.46 141.813 66.9333 141.887 66.44 141.94C65.1733 142.087 63.7533 142.167 62.18 142.18C60.62 142.193 58.96 142.127 57.2 141.98L57.16 140.38ZM60.24 146.76C59.9467 147.24 59.7133 147.707 59.54 148.16C59.38 148.6 59.3 149.06 59.3 149.54C59.3 150.487 59.7133 151.18 60.54 151.62C61.3667 152.06 62.52 152.287 64 152.3C65.0267 152.313 65.9667 152.273 66.82 152.18C67.6867 152.087 68.4667 151.96 69.16 151.8L69.08 153.4C68.4667 153.507 67.7333 153.607 66.88 153.7C66.0267 153.793 65.04 153.84 63.92 153.84C62.6533 153.827 61.5533 153.667 60.62 153.36C59.7 153.053 58.9867 152.6 58.48 152C57.9733 151.387 57.72 150.627 57.72 149.72C57.72 149.173 57.8067 148.633 57.98 148.1C58.1667 147.553 58.4 146.987 58.68 146.4L60.24 146.76Z" fill="black"/>
<path d="M187.584 135.096H188.934V151.44H187.584V135.096ZM183.138 140.64H193.578V141.918H183.138V140.64ZM182.382 145.086H194.316V146.346H182.382V145.086ZM183.372 136.248L184.506 135.816C184.746 136.2 184.974 136.626 185.19 137.094C185.418 137.55 185.616 138 185.784 138.444C185.964 138.876 186.096 139.26 186.18 139.596L184.956 140.118C184.884 139.782 184.764 139.392 184.596 138.948C184.428 138.504 184.236 138.048 184.02 137.58C183.816 137.1 183.6 136.656 183.372 136.248ZM192.084 135.654L193.434 136.176C193.23 136.608 193.008 137.064 192.768 137.544C192.528 138.024 192.288 138.486 192.048 138.93C191.808 139.362 191.58 139.752 191.364 140.1L190.266 139.65C190.482 139.29 190.698 138.882 190.914 138.426C191.142 137.958 191.358 137.478 191.562 136.986C191.766 136.494 191.94 136.05 192.084 135.654ZM181.986 134.934L183.246 135.33C182.838 136.338 182.358 137.334 181.806 138.318C181.266 139.302 180.678 140.226 180.042 141.09C179.418 141.954 178.776 142.722 178.116 143.394C178.068 143.286 177.996 143.148 177.9 142.98C177.816 142.812 177.726 142.644 177.63 142.476C177.534 142.308 177.444 142.17 177.36 142.062C177.96 141.486 178.548 140.82 179.124 140.064C179.7 139.296 180.234 138.48 180.726 137.616C181.218 136.74 181.638 135.846 181.986 134.934ZM180.114 139.578L181.374 138.3L181.41 138.318V151.386H180.114V139.578ZM204 144.834H210.678V146.076H204V144.834ZM199.698 145.284C200.046 146.268 200.49 147.06 201.03 147.66C201.582 148.26 202.218 148.728 202.938 149.064C203.658 149.388 204.444 149.61 205.296 149.73C206.148 149.85 207.054 149.91 208.014 149.91C208.134 149.91 208.332 149.91 208.608 149.91C208.884 149.91 209.202 149.91 209.562 149.91C209.922 149.91 210.282 149.91 210.642 149.91C211.014 149.91 211.35 149.91 211.65 149.91C211.962 149.898 212.196 149.892 212.352 149.892C212.28 150 212.208 150.132 212.136 150.288C212.076 150.444 212.016 150.606 211.956 150.774C211.908 150.942 211.872 151.086 211.848 151.206H211.02H207.96C206.844 151.206 205.806 151.134 204.846 150.99C203.898 150.846 203.028 150.576 202.236 150.18C201.456 149.796 200.76 149.25 200.148 148.542C199.548 147.822 199.038 146.892 198.618 145.752L199.698 145.284ZM197.7 136.986H210.534V138.246H197.7V136.986ZM196.134 140.73H211.848V141.99H196.134V140.73ZM203.262 134.898H204.648V141.396H203.262V134.898ZM203.262 141.432H204.648V150.216L203.262 149.748V141.432ZM198.942 143.088L200.346 143.268C200.214 144.252 200.004 145.26 199.716 146.292C199.428 147.324 199.032 148.296 198.528 149.208C198.036 150.108 197.4 150.864 196.62 151.476C196.548 151.392 196.452 151.296 196.332 151.188C196.212 151.08 196.086 150.966 195.954 150.846C195.834 150.738 195.72 150.654 195.612 150.594C196.344 150.03 196.938 149.334 197.394 148.506C197.85 147.666 198.198 146.778 198.438 145.842C198.69 144.894 198.858 143.976 198.942 143.088Z" fill="black"/>
</svg>
