<svg xmlns="http://www.w3.org/2000/svg" viewBox="0 0 800 420" fill="none">
  <!-- Background with warm gradient feel -->
  <rect width="800" height="420" rx="16" fill="#f8f6f3"/>

  <!-- Large abstract shapes - layered composition -->
  <!-- Bottom-right large teal blob -->
  <ellipse cx="620" cy="320" rx="220" ry="180" fill="#6b9e9e" opacity="0.07"/>
  <!-- Top-left gold blob -->
  <ellipse cx="180" cy="100" rx="200" ry="150" fill="#eaad63" opacity="0.06"/>

  <!-- Central composition: interconnected business system -->
  <!-- Main hub circle -->
  <circle cx="400" cy="210" r="70" fill="white" stroke="#6b9e9e" stroke-width="2.5"/>
  <circle cx="400" cy="210" r="55" fill="#6b9e9e" opacity="0.06"/>

  <!-- Inner hub: abstract book/document -->
  <rect x="375" y="182" width="50" height="56" rx="4" fill="white" stroke="#6b9e9e" stroke-width="1.8"/>
  <rect x="375" y="182" width="8" height="56" rx="3" fill="#6b9e9e" opacity="0.25"/>
  <rect x="390" y="194" width="28" height="3" rx="1.5" fill="#6b9e9e" opacity="0.35"/>
  <rect x="390" y="202" width="22" height="3" rx="1.5" fill="#eaad63" opacity="0.5"/>
  <rect x="390" y="210" width="26" height="3" rx="1.5" fill="#6b9e9e" opacity="0.25"/>
  <rect x="390" y="218" width="18" height="3" rx="1.5" fill="#6b9e9e" opacity="0.2"/>
  <rect x="390" y="226" width="24" height="3" rx="1.5" fill="#eaad63" opacity="0.35"/>

  <!-- Orbiting satellite nodes with connecting lines -->

  <!-- Node 1: People/Team (top-left) -->
  <line x1="348" y1="163" x2="240" y2="100" stroke="#6b9e9e" stroke-width="1.5" opacity="0.2"/>
  <circle cx="230" cy="92" r="36" fill="white" stroke="#6b9e9e" stroke-width="2"/>
  <circle cx="230" cy="82" r="10" fill="#6b9e9e" opacity="0.2"/>
  <path d="M215 102 Q230 95 245 102" stroke="#6b9e9e" stroke-width="1.5" fill="#6b9e9e" opacity="0.15"/>
  <circle cx="213" cy="86" r="6" fill="#eaad63" opacity="0.2"/>
  <circle cx="247" cy="86" r="6" fill="#eaad63" opacity="0.2"/>

  <!-- Node 2: Process/Gears (top-right) -->
  <line x1="452" y1="163" x2="560" y2="95" stroke="#eaad63" stroke-width="1.5" opacity="0.2"/>
  <circle cx="570" cy="88" r="36" fill="white" stroke="#eaad63" stroke-width="2"/>
  <circle cx="562" cy="82" r="14" fill="none" stroke="#eaad63" stroke-width="1.8" opacity="0.4"/>
  <circle cx="562" cy="82" r="5" fill="#eaad63" opacity="0.25"/>
  <circle cx="580" cy="96" r="10" fill="none" stroke="#eaad63" stroke-width="1.8" opacity="0.3"/>
  <circle cx="580" cy="96" r="3.5" fill="#eaad63" opacity="0.2"/>

  <!-- Node 3: Chart/Growth (right) -->
  <line x1="468" y1="220" x2="580" y2="230" stroke="#6b9e9e" stroke-width="1.5" opacity="0.2"/>
  <circle cx="595" cy="232" r="36" fill="white" stroke="#6b9e9e" stroke-width="2"/>
  <polyline points="575,252 585,242 595,248 605,228 615,222" fill="none" stroke="#6b9e9e" stroke-width="2" stroke-linecap="round" stroke-linejoin="round" opacity="0.45"/>
  <circle cx="615" cy="222" r="3" fill="#eaad63"/>

  <!-- Node 4: Structure/Blocks (bottom-right) -->
  <line x1="440" y1="265" x2="510" y2="340" stroke="#eaad63" stroke-width="1.5" opacity="0.2"/>
  <circle cx="520" cy="350" r="36" fill="white" stroke="#eaad63" stroke-width="2"/>
  <rect x="504" y="334" width="14" height="14" rx="2" fill="#6b9e9e" opacity="0.2" stroke="#6b9e9e" stroke-width="1"/>
  <rect x="522" y="334" width="14" height="14" rx="2" fill="#eaad63" opacity="0.2" stroke="#eaad63" stroke-width="1"/>
  <rect x="504" y="352" width="14" height="14" rx="2" fill="#eaad63" opacity="0.2" stroke="#eaad63" stroke-width="1"/>
  <rect x="522" y="352" width="14" height="14" rx="2" fill="#6b9e9e" opacity="0.2" stroke="#6b9e9e" stroke-width="1"/>

  <!-- Node 5: Workflow/Arrows (bottom-left) -->
  <line x1="355" y1="265" x2="280" y2="335" stroke="#6b9e9e" stroke-width="1.5" opacity="0.2"/>
  <circle cx="270" cy="345" r="36" fill="white" stroke="#6b9e9e" stroke-width="2"/>
  <path d="M252 340 L268 340 L268 332 L284 345 L268 358 L268 350 L252 350 Z" fill="#6b9e9e" opacity="0.2" stroke="#6b9e9e" stroke-width="1.2"/>

  <!-- Node 6: Lightbulb/Ideas (left) -->
  <line x1="332" y1="220" x2="210" y2="230" stroke="#eaad63" stroke-width="1.5" opacity="0.2"/>
  <circle cx="195" cy="232" r="36" fill="white" stroke="#eaad63" stroke-width="2"/>
  <circle cx="195" cy="225" r="12" fill="none" stroke="#eaad63" stroke-width="1.8" opacity="0.4"/>
  <line x1="190" y1="240" x2="200" y2="240" stroke="#eaad63" stroke-width="1.8" opacity="0.3" stroke-linecap="round"/>
  <line x1="191" y1="245" x2="199" y2="245" stroke="#eaad63" stroke-width="1.5" opacity="0.25" stroke-linecap="round"/>
  <line x1="195" y1="210" x2="195" y2="205" stroke="#eaad63" stroke-width="1.2" opacity="0.3" stroke-linecap="round"/>
  <line x1="182" y1="215" x2="178" y2="211" stroke="#eaad63" stroke-width="1.2" opacity="0.25" stroke-linecap="round"/>
  <line x1="208" y1="215" x2="212" y2="211" stroke="#eaad63" stroke-width="1.2" opacity="0.25" stroke-linecap="round"/>

  <!-- Dashed orbit ring -->
  <circle cx="400" cy="210" r="170" fill="none" stroke="#6b9e9e" stroke-width="1" stroke-dasharray="6 8" opacity="0.1"/>

  <!-- Small floating dots for dynamism -->
  <circle cx="320" cy="130" r="3" fill="#eaad63" opacity="0.3"/>
  <circle cx="490" cy="140" r="2.5" fill="#6b9e9e" opacity="0.25"/>
  <circle cx="310" cy="290" r="2" fill="#6b9e9e" opacity="0.2"/>
  <circle cx="500" cy="280" r="3" fill="#eaad63" opacity="0.25"/>
  <circle cx="140" cy="170" r="2.5" fill="#6b9e9e" opacity="0.15"/>
  <circle cx="660" cy="160" r="2" fill="#eaad63" opacity="0.2"/>
  <circle cx="130" cy="300" r="3" fill="#eaad63" opacity="0.12"/>
  <circle cx="680" cy="300" r="2.5" fill="#6b9e9e" opacity="0.15"/>

  <!-- Top & bottom accent lines -->
  <rect width="800" height="4" rx="2" fill="#6b9e9e"/>
  <rect y="416" width="800" height="4" rx="2" fill="#eaad63"/>
</svg>