<?xml version="1.0" encoding="UTF-8"?>
<svg id="_レイヤー_2" data-name="レイヤー 2" xmlns="http://www.w3.org/2000/svg" viewBox="0 0 1835.02 416.95">
  <defs>
    <style>
      .cls-1 {
        fill: #040000;
      }

      .cls-2 {
        fill: #00ac9a;
      }
    </style>
  </defs>
  <g id="_レイヤー_1-2" data-name="レイヤー 1">
    <g>
      <path class="cls-1" d="M271.26,266.49c-26.97,13.23-54.28,19.84-83.8,19.98l-109.03.53-.32,123.68-78,.06L0,.65l191.01.57c30.01.09,57.24,8.93,83.16,21.81,25.62,14.43,46.55,34.51,57.67,62.11,26.3,65.25,6.72,146.8-60.59,181.35ZM263.84,141.24c-.76-30.8-16.46-55.84-44.21-67.33-12.3-5.42-25.85-8.54-39.89-8.54h-101.57s.07,155.95.07,155.95l97.69.05c49.24.02,89.22-27.03,87.9-80.13Z"/>
      <path class="cls-1" d="M816.67,403.07c-47.22,18.76-99.24,18.06-144.61-1.48-61.1-26.32-95.95-85.13-93.27-151,2.67-65.49,42.21-120.71,104.95-141.84,40.16-13.52,84.63-13.64,124.79-.21,63.97,21.38,103.77,77.19,105.55,143.99,1.76,66.26-34.26,125.44-97.41,150.54ZM812.22,324.82c21.1-22.28,26.88-50.94,24.3-79.88-4.61-51.76-47.68-87.37-99.38-82.41-36.49,3.5-66.93,26.4-77.09,62.34-16.08,56.9,11.27,116.39,70.49,125.99,30.76,4.99,60.59-3.77,81.69-26.05Z"/>
      <path class="cls-1" d="M1133.29,340.73l21.99,52.86c-30.29,25.47-86.95,27.28-122.38,14.34-40.6-14.83-60.04-49.62-60.23-91.62l-.68-151.48-49.87-.53-.16-60.22,49.93-.52.45-73.85,75.43-.15.39,73.98,85.13.35-.1,60.64-85.15.25-.07,139.09c-.01,21.55,7.17,42.94,29.77,48.29,18.91,3.59,36.85.43,55.55-11.44Z"/>
      <path class="cls-1" d="M1602.31,83.51c10.63-23.04,18.65-47.81,31.77-70.71,2.13-3.73,2.88-7.79,3.29-11.2,2.66.37,3.07,1.34,4.7,4.77l192.95,404.13-84.06.49-43.25-94.32-186.47-.29,28.13-62.44,129.76-.72-76.81-169.72Z"/>
      <path class="cls-2" d="M1637.37,1.6c-.41,3.41-1.16,7.47-3.29,11.2-13.11,22.9-21.14,47.67-31.77,70.71l-69.41,150.46c-14.08,30.51-26.13,59.91-41.98,89.23-16.72,30.93-40.07,56.27-71.73,72.42-55.62,28.38-122.53,28.48-177.69.02-9.74-5.03-18.06-10.65-24.15-18,20.38,11.98,46.19,14.79,69.85,11.56,44.85-6.12,79.71-31.88,108.59-62.51,18.34-19.45,30.6-41.7,42.58-66.69L1562.94.19c26.24,1.11,50.53-1.88,74.43,1.41Z"/>
      <path class="cls-1" d="M1395.79,326.69c-28.88,30.64-63.74,56.39-108.59,62.51-23.66,3.23-49.47.42-69.85-11.56-20.77-12.21-34.37-36.33-43.93-58.47-15.13-35.04-15.42-73.29-4.97-109.64,21.06-73.3,90.33-112.94,164.61-110.57,49.52-.04,96.83,19.77,128.88,57.93l-42.57,88.56c-3.41-45.56-37.88-80.92-84.54-83.09-29.15-1.35-57.51,8.9-76.01,31.46-32.51,39.63-27.69,113.23,19.66,143.47,37.85,24.17,84.19,17.86,117.3-10.6Z"/>
      <path class="cls-1" d="M458.25,410.31l-74.99.44-.03-307.56,71.94.07,1.27,41.98c26.44-34.1,68.82-50.1,110.09-45.55l-.34,70.41c-30.25-6.08-62.01-.38-83.5,21.79-16.39,16.91-21.05,39.29-24.08,62.68l-.36,155.73Z"/>
    </g>
  </g>
</svg>