<?xml version="1.0" encoding="UTF-8"?>
<svg xmlns="http://www.w3.org/2000/svg" viewBox="0 0 841.15 841.15">
  <defs>
    <style>
      .cls-1 { fill: #040000; }
      .cls-2 { fill: #00ac9a; }
      .cls-3 { fill: #fff; }
    </style>
  </defs>
  <g>
    <rect class="cls-3" width="841.15" height="841.15"/>
    <g>
      <path class="cls-1" d="M524.76,295.61c10.63-23.04,18.65-47.81,31.77-70.71,2.13-3.73,2.88-7.79,3.29-11.2,2.66.37,3.07,1.34,4.7,4.77l192.95,404.13-84.06.49-43.25-94.32-186.47-.29,28.13-62.44,129.76-.72-76.81-169.72Z"/>
      <path class="cls-2" d="M559.81,213.7c-.41,3.41-1.16,7.47-3.29,11.2-13.11,22.9-21.14,47.67-31.77,70.71l-69.41,150.46c-14.08,30.51-26.13,59.91-41.98,89.23-16.72,30.93-40.07,56.27-71.73,72.42-55.62,28.38-122.53,28.48-177.69.02-9.74-5.03-18.06-10.65-24.15-18,20.38,11.98,46.19,14.79,69.85,11.56,44.85-6.12,79.71-31.88,108.59-62.51,18.34-19.45,30.6-41.7,42.58-66.69l124.57-259.82c26.24,1.11,50.53-1.88,74.43,1.41Z"/>
      <path class="cls-1" d="M318.23,538.79c-28.88,30.64-63.74,56.39-108.59,62.51-23.66,3.23-49.47.42-69.85-11.56-20.77-12.21-34.37-36.33-43.93-58.47-15.13-35.04-15.42-73.29-4.97-109.64,21.06-73.3,90.33-112.94,164.61-110.57,49.52-.04,96.83,19.77,128.88,57.93l-42.57,88.56c-3.41-45.56-37.88-80.92-84.54-83.09-29.15-1.35-57.51,8.9-76.01,31.46-32.51,39.63-27.69,113.23,19.66,143.47,37.85,24.17,84.19,17.86,117.3-10.6Z"/>
    </g>
  </g>
</svg>
